/* XPM */
static char *Exit__1_1723642751[] = {
/* columns rows colors chars-per-pixel */
"50 50 2 1 ",
"  c black",
". c #010101",
/* pixels */
"                                                  ",
".....................                             ",
".....................                             ",
".....................                             ",
".....................                             ",
".....................                             ",
".....................                             ",
".....................          .                  ",
"........                      ...                 ",
".......                      .....                ",
".......                     .......               ",
".......                    .........              ",
".......                    ..........             ",
".......                     ..........            ",
".......                      ..........           ",
".......                       ..........          ",
".......                        ..........         ",
".......                         ..........        ",
".......                          ..........       ",
".......                           ..........      ",
".......                            ..........     ",
".......         ..............................    ",
".......         ...............................   ",
".......         ................................  ",
".......         ................................. ",
".......         ..................................",
".......         ................................. ",
".......         ................................  ",
".......         ...............................   ",
".......                            ...........    ",
".......                           ...........     ",
".......                          ...........      ",
".......                         ...........       ",
".......                        ...........        ",
".......                       ...........         ",
".......                      ...........          ",
".......                     ...........           ",
".......                    ...........            ",
".......                    ..........             ",
".......                    .........              ",
".......                     .......               ",
"........                     .....                ",
".....................         ...                 ",
".....................                             ",
".....................                             ",
".....................                             ",
".....................                             ",
".....................                             ",
".....................                             ",
"                                                  "
};
