/* XPM */
static char *d6948ea5bb9943a3db187780a012458etE7z2XXcyE7AX3Ge[] = {
/* columns rows colors chars-per-pixel */
"50 50 228 2 ",
"   c None",
".  c #000000",
"X  c #050905",
"o  c #0A0C0B",
"O  c #080606",
"+  c #120301",
"@  c #1A0905",
"#  c #0C120B",
"$  c #07130D",
"%  c #18110C",
"&  c #0B0E14",
"*  c #0D1215",
"=  c #061410",
"-  c #161716",
";  c #23110D",
":  c #29110D",
">  c #2C1A0E",
",  c #251C17",
"<  c #291E18",
"1  c #281411",
"2  c #2E150D",
"3  c #1A2014",
"4  c #2A251A",
"5  c #39251A",
"6  c #1F2737",
"7  c #242A2B",
"8  c #2C2D2A",
"9  c #292722",
"0  c #322B22",
"q  c #342D27",
"w  c #2D332E",
"e  c #29352A",
"r  c #34322B",
"t  c #39322A",
"y  c #242B36",
"u  c #253134",
"i  c #2D3335",
"p  c #26333C",
"a  c #2C343C",
"s  c #2D393C",
"d  c #313332",
"f  c #3C3E3C",
"g  c #323738",
"h  c #462719",
"j  c #553F1F",
"k  c #4D382A",
"l  c #5F3529",
"z  c #433F39",
"x  c #522E24",
"c  c #61382A",
"v  c #3B4539",
"b  c #43463A",
"n  c #594835",
"m  c #644C39",
"M  c #6C4733",
"N  c #6E4B33",
"B  c #2B3643",
"V  c #2D394A",
"C  c #333D44",
"Z  c #353D4D",
"A  c #2F3F56",
"S  c #353E52",
"D  c #363C58",
"F  c #2F414F",
"G  c #34414C",
"H  c #3B464D",
"J  c #314045",
"K  c #2F4154",
"L  c #334253",
"P  c #3A4554",
"I  c #3B465B",
"U  c #434944",
"Y  c #4C524C",
"T  c #52534D",
"R  c #575549",
"E  c #424A54",
"W  c #424F5F",
"Q  c #4B5251",
"!  c #4C555E",
"~  c #4E595B",
"^  c #4B5757",
"/  c #545A54",
"(  c #535B5A",
")  c #545756",
"_  c #514E4B",
"`  c #625D59",
"'  c #715642",
"]  c #5C6255",
"[  c #55635C",
"{  c #5A645A",
"}  c #5D685D",
"|  c #556155",
" . c #63635C",
".. c #68655A",
"X. c #756B59",
"o. c #737251",
"O. c #464C63",
"+. c #4B5362",
"@. c #4E5767",
"#. c #555C66",
"$. c #566065",
"%. c #5B6263",
"&. c #5A616A",
"*. c #596669",
"=. c #5C6373",
"-. c #5F637E",
";. c #5F716A",
":. c #646C64",
">. c #636B6C",
",. c #666965",
"<. c #6B7263",
"1. c #69776A",
"2. c #727569",
"3. c #737A6E",
"4. c #777769",
"5. c #636A76",
"6. c #6A7371",
"7. c #6D7B72",
"8. c #737B73",
"9. c #777C77",
"0. c #7A6F60",
"q. c #835E4A",
"w. c #9B7949",
"e. c #866044",
"r. c #74826B",
"t. c #73847E",
"y. c #7B827D",
"u. c #798378",
"i. c #818274",
"p. c #878879",
"a. c #908E7E",
"s. c #82866D",
"d. c #A89B7D",
"f. c #697084",
"g. c #798483",
"h. c #7A8696",
"j. c #838B84",
"k. c #848C8A",
"l. c #8B8F8D",
"z. c #8C928C",
"x. c #8D9E8C",
"c. c #899388",
"v. c #949688",
"b. c #8D9392",
"n. c #8B9E93",
"m. c #889F96",
"M. c #959C93",
"N. c #9F9F9C",
"B. c #8DA291",
"V. c #8AA598",
"C. c #97A79A",
"Z. c #90A48F",
"A. c #ABA890",
"S. c #929AA5",
"D. c #8E93A1",
"F. c #8CAAA2",
"G. c #96ACA5",
"H. c #9DAEA3",
"J. c #97AAAA",
"K. c #9CB2A9",
"L. c #9BB5B2",
"P. c #B2AFA8",
"I. c #A9B8A9",
"U. c #A4B9B7",
"Y. c #AEB3AE",
"T. c #DAB886",
"R. c #9BC0BF",
"E. c #B2C3B3",
"W. c #BBC5B2",
"Q. c #BECBB6",
"!. c #B6CFBC",
"~. c #BCCCBB",
"^. c #B7C6B8",
"/. c #BDD2BE",
"(. c #AEC0B5",
"). c #C3CDBD",
"_. c #C3C7BC",
"`. c #C2D3BF",
"'. c #CFCEB6",
"]. c #EACBAC",
"[. c #FAE2B3",
"{. c #AFBAC4",
"}. c #99C3CE",
"|. c #A7C7C6",
" X c #BEC3C1",
".X c #BBCBC6",
"XX c #BCD4C1",
"oX c #BFD8C4",
"OX c #B9D7CA",
"+X c #A4CBD4",
"@X c #BAD6D8",
"#X c #AFD1D4",
"$X c #B8D6E4",
"%X c #C2C3C1",
"&X c #C4CDC4",
"*X c #C6CACB",
"=X c #C2D4C3",
"-X c #C2D9C5",
";X c #C5D6CA",
":X c #CBD4C8",
">X c #C3DBCA",
",X c #CBDACD",
"<X c #CAD7C5",
"1X c #D1DDCB",
"2X c #D7DAC7",
"3X c #CDDCD1",
"4X c #C9CFDB",
"5X c #CBE1D5",
"6X c #D3E5D4",
"7X c #DAE4DC",
"8X c #DCE9DB",
"9X c #D9E8D7",
"0X c #D7E1CE",
"qX c #E0EAD6",
"wX c #E4E7D8",
"eX c #F8F2D5",
"rX c #D8EAE2",
"tX c #D3EFED",
"yX c #E3F3E8",
"uX c #ECFDF5",
"iX c #F5FFFA",
"pX c #FEFFFA",
"aX c #FAFFFE",
"sX c #FFFFFF",
"dX c #FEFFFE",
"fX c #FFFFFE",
"gX c #F5FDF6",
"hX c #F6FFEE",
/* pixels */
"                                                                                                    ",
"                                                                                                    ",
"                                                                                                    ",
"                                  ` . . . . . . . . . . . . .                                       ",
"                            8 t d y.*X X X X%X%X_.%X X&X*X X  f d `                                 ",
"                            . . . j.sXaXaXaXaXsXpXsXgXuXaXgXaX- . r                                 ",
"                        % 4 ).).Y.~.,X;X;X;X;X:X:X<X;X=X3X;X=X~.:XM.. 2.                            ",
"                        e v 6X-XXX>X>XoXoX=X=X=X=X/.-XXX!.oX-X=X6XI.8  .                            ",
"                    < . ~.8X=X=X>XoX/.oXXXXXXX=X`.=XoXXX!.-X>X=X=X:XpX<..                           ",
"                    ` T ^.=X/.XX>X>X/.-XoX-X-X=X`./.XXXX-XoX!.>X=X=X1XM./ 3.                        ",
"                T . P.hX`./.=XXXE.XXXX!.~.~.~.~.Q.Q.`.~.XXXXXX~..X&X^.1XsXf .                       ",
"                ,.. P.yX9X6X6XrX7X7X8X8X8X8X8XqXqXqX8X8X8X8X8X8X8X7X7XwXgX/ .                       ",
"                 .. _.sXpXsXsXiXsXsXaXsXsXsXsXsXpXpXsXsXsXsXsXsXsXsXsXsXsX ..                       ",
"                ... ,.C.c.j.k.k.b.k.z.b.z.z.z.z.z.z.z.z.z.z.z.z.b.l.j.l.P.z .                       ",
"                ,.. Y :.:.:.:.>.#.>.>.%.%.%.%.%.%.%.%.%.%.%.%.%.$.*.6.%.9.9 .                       ",
"                T . / 8.8.Y - - * * * * * * * * * * * * * * * * * 7 >.>.k.8 .                       ",
"                . . ( 6.X o ( #.a C Z C C C C C C C C C C s p p H s . s k.e .                       ",
"                - . ) 7.X # %.E C Z Z Z G G G G G G C C C W $.#.H u . u z.w .                       ",
"                N . ( 8.X & &.+.S S S S L L L L A I L V C M.*XU.H u . d v.0 .                       ",
"                m . ( 8.X o &.+.Z S S S G G L L L A G G B S.{.J.H u . w v.0 .                       ",
"                m . ^ 8.X o %.+.Z S S S G G G L L V L L 6 D.4XU.E p . 8 v.r .                       ",
"                m . ^ 8.X o &.! Z S Z Z G G G G L S L L Z =.5.@.I p . i v.r .                       ",
"                m . ^ 3.X o &.! Z S Z Z G G G G S L K V P V y B G p . a c.9 . d.                    ",
"                m . ( 8.X & #.+.Z S S S Z Z G S S S K L L V E h.W B . u M.r . > 5 > M               ",
"                m . ^ 8.X & &.O.S D S S Z Z G S S S K L V Z P S.P p . a z.8 . +   +   T.            ",
"                m . ^ 9.X & =.O.S D D S S S S S S S K L G G G P L p . a z.q .         . M           ",
"                m . ^ 6.X & =.@.D I D S Z Z Z S S S F G G Z Z Z P p . u z.r .         0 N           ",
"                m . ^ 9.X & #.@.-.O.V S Z Z Z Z S Z G J C C C C P C . g v.0 .           q.x         ",
"                m . ^ u.. o 5.=.f.@.+.+.+.~ ~ +.+.+.~ ~ ~ ~ ~ ~ #.C . 7 v.9 .           ' c         ",
"                m . / 1.v w 7 a y a a i i i i i i i i i i d d i g i f T a.t .             l         ",
"                m . ^ 1.c.} . . . . . . . . . . . . . . . . . . . . k.y.0.0 .             c         ",
"                m . ^ r.<.<.Y Y Q U Q Y Y Y Y Y Y Y Q Q Y Y T Y Q ( 6.3.p.0 .             l         ",
"                N . R r.1.1.t.t.t.9.9.i.i.i.9.9.g.g.y.9.p.u.2.u.g.t.;.u.s.4 .             j         ",
"                    h o # o o $ $ # # O O O O o o o # o % o o # # $ = # o             - n           ",
"                    k % : > ; % ; ; ; : : ; : ; ; 1 ; ; ; ; ; ; > ; 1 2 @             . z           ",
"                                                                                  + . . . n         ",
"                                                                                    b 9 b ..        ",
"                                . . . . . . . . . . . . . . . .                 . sXsXC.iXN..       ",
"                            X.X.9.] } 2.3.2./ ] 2.4.0.2.8.[ { <...              . .XOXF.$Xg..       ",
"                            . _ sXyXuXsXsXsX3X8XsXsXsXsXsXtX@XiX. ;             . J.F.R.@X$.. w.    ",
"                            . U 3X|.+X#X#X@XL.U.@X.X&X.X+X+X}.U.. 5           4 . {.|.}.$X&.. w.    ",
"                            . d =XK.U.G.G.H.H.I.I.C.C.H.J.J.|.m.. 5           h . &X5XL.@X>..       ",
"                        h k '.W.H.rX;XU.5XyXyX6XI.I.I.,XyXrXrX^.2XA., e.      h + i.B.n.G.Y .       ",
"                        + , eX2X:X3X<X`.0X1X1X<X).<X).=X1X1X,X1XwXA.. n           ; . O . n         ",
"                        @ < '.W.~.E.~.~._.W.Q.Q.~.~.~.~.W.).~.E.2Xv.. m           h , < - o.        ",
"                        o 3 C.G.m.V.C.B.x.Z.Z.B.V.m.F.V.n.x.x.H.n.7.. R               ].            ",
"                        o o  .[ [ *.[ } ] { | | } [ [ [ } } / { :.U . R [.                          ",
"                        . . . . . . . . . . . . . . . . . . . . . . . n                             ",
"                                                                                                    ",
"                                                                                                    "
};
