/* XPM */
static char *_ef4e119814a44fe865f982d9ca6af716T5XInvS5Ojz3dal[] = {
/* columns rows colors chars-per-pixel */
"50 50 188 2 ",
"   c #000000",
".  c #0E0606",
"X  c #130807",
"o  c #140B09",
"O  c #290E0E",
"+  c #37120F",
"@  c #2C1212",
"#  c #391515",
"$  c #391A18",
"%  c #4C1B14",
"&  c #441D1B",
"*  c #4C1D1D",
"=  c #431714",
"-  c #541E1E",
";  c #5A1E1E",
":  c #4F241E",
">  c #52221E",
",  c #5D201F",
"<  c #61201F",
"1  c #6E261E",
"2  c #571F20",
"3  c #472824",
"4  c #4E2B26",
"5  c #552422",
"6  c #5C2322",
"7  c #5A2826",
"8  c #572B27",
"9  c #5F332C",
"0  c #632322",
"q  c #6B2522",
"w  c #632827",
"e  c #6D2925",
"r  c #652B29",
"t  c #6A2E2B",
"y  c #722623",
"u  c #742925",
"i  c #7C2A25",
"p  c #742D2A",
"a  c #7C2F2A",
"s  c #67302C",
"d  c #6D312E",
"f  c #75312C",
"g  c #7C322E",
"h  c #6E3230",
"j  c #743532",
"k  c #7B3632",
"l  c #753935",
"z  c #7A3935",
"x  c #713F38",
"c  c #7D3D39",
"v  c #7D4139",
"b  c #832C26",
"n  c #892D26",
"m  c #842E28",
"M  c #8B2F28",
"N  c #83322D",
"B  c #8D332C",
"V  c #81392F",
"C  c #94332A",
"Z  c #9C362C",
"A  c #93382F",
"S  c #823631",
"D  c #8B3630",
"F  c #833A35",
"G  c #8A3932",
"H  c #833E39",
"J  c #8C3F39",
"K  c #943730",
"L  c #923C34",
"P  c #9B3C34",
"I  c #943F38",
"U  c #A2372C",
"Y  c #A5382D",
"T  c #AB3B2E",
"R  c #B13C2F",
"E  c #A33D33",
"W  c #AD3D31",
"Q  c #B43E31",
"!  c #B83F30",
"~  c #84423D",
"^  c #8D413B",
"/  c #9E4137",
"(  c #93433C",
")  c #9A443C",
"_  c #AC4236",
"`  c #A4453B",
"'  c #AB453A",
"]  c #A54A3E",
"[  c #AB493E",
"{  c #A54136",
"}  c #B54234",
"|  c #BC4334",
" . c #B34639",
".. c #BB4738",
"X. c #B44A3D",
"o. c #BC4B3C",
"O. c #C24434",
"+. c #C64837",
"@. c #C84837",
"#. c #C24B3B",
"$. c #CA4D3B",
"%. c #CD503E",
"&. c #D0503D",
"*. c #874641",
"=. c #894742",
"-. c #8C4A44",
";. c #954740",
":. c #984740",
">. c #954A43",
",. c #9C4B43",
"<. c #904E48",
"1. c #9C5047",
"2. c #935149",
"3. c #9C554D",
"4. c #A34C43",
"5. c #AA4C42",
"6. c #B34E42",
"7. c #BB4E41",
"8. c #AC5247",
"9. c #A75249",
"0. c #AA5449",
"q. c #A3594F",
"w. c #AA594D",
"e. c #A35146",
"r. c #B65245",
"t. c #BD5345",
"y. c #B55549",
"u. c #B85548",
"i. c #B3594E",
"p. c #BD5B4D",
"a. c #AB5F54",
"s. c #B25D51",
"d. c #BC5E50",
"f. c #AC6056",
"g. c #B36255",
"h. c #BC6255",
"j. c #B4665A",
"k. c #BB6659",
"l. c #B5695C",
"z. c #B96A5E",
"x. c #BB6E61",
"c. c #BD7165",
"v. c #C14F40",
"b. c #C55343",
"n. c #CB5544",
"m. c #C55949",
"M. c #C15A4C",
"N. c #C65C4C",
"B. c #C45A4B",
"V. c #CF5C4B",
"C. c #CA5C4B",
"Z. c #CB5846",
"A. c #D15442",
"S. c #D35946",
"D. c #D25C4B",
"F. c #C35F50",
"G. c #CF604F",
"H. c #D0604F",
"J. c #C46253",
"K. c #CB6353",
"L. c #CF6857",
"P. c #C46759",
"I. c #C26A5C",
"U. c #C46B5D",
"Y. c #CB6C5C",
"T. c #D26351",
"R. c #D36957",
"E. c #D36D5C",
"W. c #D9705E",
"Q. c #C26F62",
"!. c #C47264",
"~. c #CD7565",
"^. c #C77668",
"/. c #CB7C6D",
"(. c #C6786A",
"). c #D17564",
"_. c #D87867",
"`. c #D47B6B",
"'. c #DF7B69",
"]. c #D7806F",
"[. c #D78474",
"{. c #DD8877",
"}. c #E1816F",
"|. c #E28673",
" X c #E18B7A",
".X c #E7917F",
"XX c #E9917E",
"oX c #ED9684",
/* pixels */
"l f N [ p.h.h.I.h.i.3.=.H -.a.z.U.h.u.X.X.u.s.g.g.g.h.h.h.h.I.I.j.3.~ S G 4.d.J.h.h.h.k.I.k.1.c j e ",
"g g B  .m.N.F.J.p.r.4.( ~ >.g.Y.E.N.b.o.o.t.p.i.y.u.M.M.M.N.K.Y.k.q.-.^ ( 8.J.K.N.M.M.N.J.p.4.F a y ",
"g b A ..n.Z.n.n.v.X.` ( ~ >.h.E.T.n.$.$.$.$.v.7.X.X.o.#.#.n.S.G.F.w.,.>.4.u.N.S.Z.b.b.b.b.7./ N i y ",
"p b Z #.&.%.#.#.o.X._ I H ( u.V.S.&.A.A.A.%.#.| ..X. . .| @.A.A.m.9.;.^ ) 6.n.A.%.$.$.#..._ A i u p ",
"e i Z | @.@.| ..X.' E A g G _ #.@.#.n.V.V.$.O.O... .E P T } +.@.o.E D g N P ..+.+.O.| } W Z m y q y ",
"q u C Q O.| Q } [ ` P B i b U } | } #.m.m.#.O.O.o.' P K Z T ! | Q Z m y y B W | O.| } T U C i e 0 y ",
"q y M Y Q T Y ' 5.[ P m e u B Y T Y _ 6.t.b.#.#.6.] ) K Z U Y T U C i 0 q i Z  .#.#.} T U C i e q e ",
"q e i C Z C A ) 4.` G i 0 e b C C C A P [ r.t.r.5.) I K C C C C B m e ; < y B [ t.t.' Z Z C b e q 0 ",
"0 0 e i i i i F ^ F g e 6 < y i i i i N L 4.4.,.^ F F g i i i i u u 0 ; - < p ( 9.0.P M m m i q < ; ",
"- ; ; , < , 0 0 q q < ; - - 6 6 , ; , 0 p c H k e 0 0 0 0 0 0 0 , , - - * - 0 l v c t 0 < 0 ; ; - - ",
"; ; 6 w w w w w 6 6 6 6 6 6 w w w w w w h j d w 6 6 w w w w w w w 6 6 6 6 w t l c z t 6 6 w 6 ; ; - ",
"w r j ~ -.*.*.~ c k f k ~ -.=.*.*.*.*.=.~ k p t t j ~ *.=.*.~ c z k k ~ -.-.-.-.2.-.-.*.*.~ l t w 7 ",
"l z -.f.z.l.j.j.s.5.` 5.s.z.z.z.l.j.j.g.0.L g f c <.f.z.z.j.s.9.4.` 5.s.j.z.z.z.z.j.l.x.c.x.3.c l j ",
"~ ~ >.h.Y.Y.P.U.d.5.{ ] 0.g.g.g.g.g.g.g.0.( g f z -.w.g.g.a.w.e.] ` 5.w.g.j.z.l.g.k.~.[.{.[.l.-.c l ",
"*.H I r.N.N.m.N.V X X X o o o o o o o o o X . . . X o o o o o o X X X o o o o o o 9 ). XoX.X!.2.~ k ",
"~ S B ' #.#...#.u                                                                 4 E.|.oX.X!.2.~ f ",
"~ S B _ ....| O.i                                                                 > T.'..X Xc.<.~ p ",
"c g B ' X. .} | u                                                                 % b.H.E.~.g.=.z p ",
"l g B ' 6.[ _ } 1                                                                 % } #.m.d.,.c j p ",
"p p G 4.6.[ { E <                                                                 = Y W ' ` J p r e ",
"< q g ( ,.) K B -                                                                 + M M n i y 0 < 0 ",
"; 6 w g g a u y =                                                                 O e e q < ; ; ; ; ",
"- - 6 0 0 0 0 0 #                                                                 O 6 , ; ; ; - - - ",
"6 6 ; 6 w w t t $                                                                 @ t t t t w 6 6 - ",
"t w q a F ~ =.-.8                                                                 $ =.-.-.-.c t w 6 ",
"l f N ` i.g.k.z.x                                                                 3 j.k.z.j.3.c l q ",
"z g K 7.T.Y.).Y.v                                                                 4 U.Y.Y.U.q.~ k y ",
"a a A o.S.G.V.m.f                                                                 : m.m.M.t.) S p y ",
"y i A ..%.%.#...q                                                                 % #.....W A i y y ",
"e i Z | $.+.O.| q                                                                 % | Q T U m y e y ",
"q i Z | @.+.| o.t                                                                 % | Q T Z m e q y ",
"q y M R } Q W [ s                                                                 % } T U C b e 0 e ",
"q e b Z Y Z Z ` r                                                                 * _ Z Z C b e 0 0 ",
"0 0 e i m b a G 5                                                                 & P n m m i q 0 < ",
"; ; 0 q e q e p &                                                                 # g e e y q 6 ; ; ",
"- - - 6 , , , 0 #                                                                 @ w ; ; ; ; - - - ",
"5 6 6 w t t w w 6 - - 5 5 5 5 5 5 5 5 7 5 5 > * * - 5 7 7 7 7 5 5 5 5 5 5 5 7 9 r s t t w w w 6 5 5 ",
"w t j ~ -.-.~ ~ H F g F =.<.-.-.=.~ -.=.~ l e w t l ~ -.-.-.~ ~ H g F =.-.<.<.<.<.-.-.-.-.=.c d t w ",
"c c =.g.!.Q.z.k.h.r.X.r.h.Q.!.x.x.x.U.I.i.) S z ~ 3.j.!.!.z.j.i.8.5.r.h.U.(./.^.!.!.^././.(.a.=.c l ",
"=.~ :.F.E.E.Y.Y.K.m.b.m.K.Y.Y.Y.Y.Y.E.E.K.5.J H ( 9.P.E.Y.Y.P.M.t.b.m.K.Y.`.].).~.`.`. XoX Xx.2.~ z ",
"-.H I 6.m.m.b.n.n.n.#.#.o.t.t.t.m.m.D.D.N.8.( J L { r.Z.n.m.t.o.o.#.#.b.m.K.U.P.K.R._. XoX.X^.2.~ g ",
"~ S B W | | | #.#.#.#.| } } } ..O.#.$.$.t.[ ( G B Z _ | | | | } | O.O.O...6.u.t.v.n.R.|.oX.X!.2.~ p ",
"~ S B ' .. . .| O.+.+.| R T T Q | O.O.|  .P G g b C T | | } Q ! O.O.+.O.} _ ` _ } #.Z.W.}.[.z.-.c p ",
"z g G 6.t.X. ...O.O.O.| T Y T Q | O.| } Y B u e u C T | | Q Q Q } O.O.O.Q E P Z T } #.m.L.Y.w.~ l p ",
"p p G 5.u.5.' _ Q Q } Q Y U U T | #...W C i 0 < q m Z R T T T T T R ! Q T C C C C Y W  .X.6.( g d e ",
"e e g ) 5.` P P Z U Y U Z C C Z  .t.7.{ B e < ; 0 i B Z Z C C C Z U Y U Z M n n M C C Z Z K N e w 0 ",
", 0 p G L B a a b b m m m b b B ` y.5.I a q ; ; ; 0 u i b i i i i b m m m b i i i i b b i u e 0 , , ",
"- 5 6 w e e 0 0 q q q e e e e y S ( J g q , - - - ; 0 0 0 0 0 0 0 0 q e e q q q 0 0 0 0 0 ; ; - - - ",
"* * - 2 2 2 - - - - - - - - ; 6 w d r w 6 - - * * * * - - - - - - - - - - - - - - - - - - - - * * * ",
"* * * * * * * * * * * * * * * * 5 6 6 6 - * * * * * * * * * * * * * * * * * * * * * * * * * * * * & "
};
