/* XPM */
static char *_6264c96d5474afb8a1452cb7af7607dRq4GxveIgULigKLV[] = {
/* columns rows colors chars-per-pixel */
"50 50 18 1 ",
"  c black",
". c #691414",
"X c #280707",
"o c #5C1111",
"O c #510F0F",
"+ c #310909",
"@ c #3B0B0B",
"# c #0B0202",
"$ c #150404",
"% c #1F0606",
"& c #761616",
"* c #851919",
"= c #450D0D",
"- c #951C1C",
"; c #DA2A2A",
": c #A92020",
"> c #BF2424",
", c #FC3030",
/* pixels */
"                                                  ",
"                                                  ",
"                                                  ",
"                                                  ",
"                                                  ",
"                                                  ",
"                                                  ",
"                                                  ",
"                                                  ",
"                                                  ",
"    $$$$#   ###  ## # #$$$$$###   #$$##   #####$$#",
"  #+->>-.% #OoO% O:*.#X-:-**..O   &>:-.   O.*->>-&",
" $=O*>:*:-X#o..% o;;-%%***&-*&o  %:;>:-%  =.-:,,,,",
" @...=+O>;&#o..X =--*%%&&&OOO=@  =>>:--@  @O&-:>:-",
" @ooO# +&&O#Oo&&&*.o&X$o.o@%o.$  .::&&*o    +&O=X#",
" +OO=#     #=O.&**oO*+$OooO@:>+ $&*&+o.o#   %.=@% ",
" X==@#     #@@oo.-=o>@#===@X*-X X..oXOoO$   %o@+% ",
" X@@+##++=@#X+OX$O+=*%#@=@%#++# @oooOOO=%   %O+X$ ",
" $+++X+@+=+ %X@$ +X+o$#+++%$O.+#@======@$   $OX%$ ",
"  %XXX++X%# $%+$ +%XO$#XXXX$.&@$+@+X%%++$#  $@%$$ ",
"   #$$%%$   ##$# $$$%# $$$##+@$$%%$   $$#   #X$## ",
"                                                  ",
"                                                  ",
"                                    #X*--*OO@#    ",
"                #o------:-$       #+*:>;;>-*&o=$  ",
"                +>,,,,;;;>%      #O:::*&*&**&&&oX ",
"               %*>;;;;;;;;%      =**--&&&&&&*-*ooX",
"              %*::----;,,;X     %&****......&*.OO=",
"              O-::>>&:;;,;X     O*****......&*.OOO",
"             X=&-->;.>;;;;X    %&*****..OOo.&*&OOO",
"            $@=&-->;o>;;;;%    %&&&&&.o=  @o&&o===",
"           #+@@.-->;o>;;;>X    #@@@@@@+$  +=OoO==@",
"          #+@=@o*o*;o>;;;>%              %++@OOOOO",
"######    $+@+@O&X.;O>;;;>%             %o.oo@@@@+",
"%XX@O@   #X++++oO .;=-:::-$           %=OoOo@%%%$#",
"XXX=O=  #X+++X++$#.>@o....%##        %:>*&&&@%%%# ",
"+++@+X  #XXXXXX=oo*:@o....&O=%      $*;>....@$$   ",
"++++$#  #%%%%%%=..-:+OoOOO.OO@     $X*>:....+#    ",
"XX+X$#  #%%%%%%=oo-:X=OOOOo=@X   #$%%&:-....X     ",
"        #%%%%%%@OO&-X=OOOOo@+%  #%%%%&:-....X$$$$#",
"        #$$$$$$@OO&*%=OOOOO@X%  %%%%%&:-ooooX#####",
"         $$$$$$+O=&*%@@@@@@X%# #$$%$%.:*OOOOX#####",
"               #$#=&%@@=@@$#    $$$$$o*&OOOO%#####",
"                  +.$+@@@@#     $$$$$O*&OOOO%#####",
"                  +.$X+++X#     $$$$$O&.====%     ",
"                  #$ #####          #$%%$$$$#     ",
"                                                  ",
"                                                  ",
"                                                  ",
"                                                  "
};
