/* XPM */
static char *_73f9b6e31e54d6c814e670521d34a40GgzZHldPRbbnW1pN[] = {
/* columns rows colors chars-per-pixel */
"50 50 195 2 ",
"   c None",
".  c #010101",
"X  c #0A0201",
"o  c #060B03",
"O  c #0B0C04",
"+  c #03010A",
"@  c #050B09",
"#  c #160B06",
"$  c #1A0E07",
"%  c #1C0C09",
"&  c #150204",
"*  c #0D1105",
"=  c #131205",
"-  c #1B1406",
";  c #141806",
":  c #14130B",
">  c #1C1409",
",  c #161808",
"<  c #1C1B0B",
"1  c #181A03",
"2  c #010114",
"3  c #1D1412",
"4  c #181A10",
"5  c #230C04",
"6  c #231202",
"7  c #23150C",
"8  c #29160B",
"9  c #221B0C",
"0  c #2A190B",
"q  c #2D1804",
"w  c #3F1805",
"e  c #311C0E",
"r  c #3B190C",
"t  c #361606",
"y  c #221413",
"u  c #2C1714",
"i  c #261D12",
"p  c #281912",
"a  c #26151B",
"s  c #281918",
"d  c #341D11",
"f  c #371C1D",
"g  c #1E2011",
"h  c #25220E",
"j  c #29210F",
"k  c #33210C",
"l  c #3A260D",
"z  c #252212",
"x  c #2B2512",
"c  c #2E2C15",
"v  c #342C16",
"b  c #3E2C13",
"n  c #342D19",
"m  c #3B2A19",
"M  c #3A2210",
"N  c #3E351E",
"B  c #3F381F",
"V  c #34341A",
"C  c #3D3222",
"Z  c #401503",
"A  c #4A250E",
"S  c #4A280F",
"D  c #43210D",
"F  c #502D0A",
"G  c #433506",
"H  c #4C310C",
"J  c #533D0A",
"K  c #4D2714",
"L  c #442C14",
"P  c #482A18",
"I  c #522A13",
"U  c #512718",
"Y  c #413010",
"T  c #48351C",
"R  c #523015",
"E  c #56351A",
"W  c #5B361B",
"Q  c #5B3A1E",
"!  c #7B3B0B",
"~  c #7E3D06",
"^  c #6F3E15",
"/  c #60371A",
"(  c #623B1D",
")  c #472925",
"_  c #492B27",
"`  c #4B252E",
"'  c #4C2D2A",
"]  c #592A23",
"[  c #473120",
"{  c #453C23",
"}  c #4A3C24",
"|  c #403A28",
" . c #583823",
".. c #4A2C31",
"X. c #673E22",
"o. c #613B2C",
"O. c #603524",
"+. c #663F31",
"@. c #664518",
"#. c #7C4C1E",
"$. c #7D4E13",
"%. c #7D5717",
"&. c #7B531B",
"*. c #765B1C",
"=. c #454124",
"-. c #4C492A",
";. c #49412B",
":. c #51452B",
">. c #5A4128",
",. c #4D4732",
"<. c #5A4E32",
"1. c #554C39",
"2. c #545231",
"3. c #5B5033",
"4. c #575638",
"5. c #595539",
"6. c #7F4E21",
"7. c #734926",
"8. c #6D582D",
"9. c #7F5722",
"0. c #7D5D2A",
"q. c #614C33",
"w. c #655732",
"e. c #665933",
"r. c #6A5B35",
"t. c #63543E",
"y. c #69553B",
"u. c #6D5A35",
"i. c #745F3C",
"p. c #7B5936",
"a. c #786233",
"s. c #645641",
"d. c #6F6040",
"f. c #716545",
"g. c #706748",
"h. c #7C6947",
"j. c #786D5D",
"k. c #7B735E",
"l. c #796969",
"z. c #797367",
"x. c #7B6C79",
"c. c #776C74",
"v. c #7E7572",
"b. c #79777E",
"n. c #7E7F7E",
"m. c #803F06",
"M. c #804005",
"N. c #83430A",
"B. c #845008",
"V. c #814D10",
"C. c #894A15",
"Z. c #8B4E1C",
"A. c #804312",
"S. c #815416",
"D. c #84601E",
"F. c #814F22",
"G. c #825325",
"H. c #825A25",
"J. c #855A2A",
"K. c #8A562C",
"L. c #945B29",
"P. c #895533",
"I. c #855B34",
"U. c #8C5936",
"Y. c #925F30",
"T. c #89692C",
"R. c #8F603D",
"E. c #836133",
"W. c #93613B",
"Q. c #887769",
"!. c #907C6D",
"~. c #877072",
"^. c #887470",
"/. c #82727A",
"(. c #807F7F",
"). c #927D7D",
"_. c #968473",
"`. c #9B8574",
"'. c #9A8678",
"]. c #9B8879",
"[. c #A48E6D",
"{. c #A08A77",
"}. c #A48F7C",
"|. c #A6917F",
" X c #A99074",
".X c #777783",
"XX c #797584",
"oX c #7D7B84",
"OX c #7E7B8A",
"+X c #827E8C",
"@X c #818184",
"#X c #838189",
"$X c #A38F80",
"%X c #AC9483",
"&X c #A69182",
/* pixels */
"                                                                                                    ",
"                                                                                                    ",
"                                                                                                    ",
"                                                                                                    ",
"                                                                                                    ",
"                                                                                                    ",
"                        [.@.E.0.&.%.D.S.%.9.H.H.H.H.H.H.H.H.H.H.J.J.I.p.a.N l.                      ",
"                         X^ K.G.&.$.V.B.V.#.#.6.6.6.6.6.F.F.G.6.#.S.G.7.*.b l.                      ",
"                        %X7.R.W.W.K.K.L.Y.U.U.U.U.U.U.U.P.U.U.P.P.Y.U.I.T.P l.                      ",
"                        l.5 P ) ....` ` ' _ _ _ ) ) ) _ _ _ _ _ ' ] ] O.F e v.                      ",
"                        j.6 p 3 a a a a a y y y y y y y y y y y s f u d H i c.                      ",
"                        k.- O . . . . . . . . . . . . . . . . . . + . : Y i x.                      ",
"                        Q.q # . . . . . . . . . . . . . . . . . . @ . : G 9 x.                      ",
"                        ^.e % . . . . . . . . . . . . . . . . . . . . : G j x.                      ",
"                        ).f % . . . . . . + + + + + + + + + + + + . . > J M /.                      ",
"                        '.m $ . . . . . . . . . . . . . . . . . . 2 + 7 @.K ~.                      ",
"                        _.L # . . . . . . . . . . . . . . . . . . + . > ^ I /.                      ",
"                        `.I 6 . . . X . . . . . . . . . . . . . . . . $ ! R OX                      ",
"                        `.W 8 . . . X . . . . . . . . . . . . . . . . > ! E +X                      ",
"                        {./ 0 . . . X . . . . . . . . . . . . . . . . > ! E +X                      ",
"                        `.W 8 . . . X . . . . . . . . . . . . . . . . > ! E +X                      ",
"                        {./ 0 . . . X . . . . . . . . . . . . . . . . > ! E #X                      ",
"                        }.( 0 . . . X . . . . . . . . . . . . . . . . > A.W #X                      ",
"                        }.X.0 . . . X . . . . . . . . . . . . . . . . 7 Z.W @X                      ",
"                        }.X.0 . . . X . . . . . . . . . . . . . . . . 7 Z.Q (.                      ",
"                        }.X.0 . . . X . . . . . . . . . . . . . . . . 7 Z.Q n.                      ",
"                        }.X.0 . + . X . . . . . . . . . . . . . . . . 7 Z.Q @X                      ",
"                        }.X.0 . + . X . . . . . . . . . . . . . . @ . 7 F.Q @X                      ",
"                        |.X.0 . @ X O . . . . . . . . o o o . . o @ . 7 Z.Q OX                      ",
"                        %X+.0 . o O & o o O O O O O O O O O O O O o . 7 C. .+X                      ",
"                        &Xo.0 o O # # O o O O O O O O O O O O # : : . 9 Z.Q @X                      ",
"                        $Xo.e o = $ $ * * O O O = = * O O = : : : 4 @ 9 Z.Q @X                      ",
"                        }.o.k * , > 5 = * = = = = = = = = = : > < < * j C.E +X                      ",
"                        ]. .k = < > 7 ; ; - - - > > > > > > < 9 9 z * 0 C.R OX                      ",
"                        '.U q 1 < 9 8 < < < 9 9 9 9 9 9 9 9 9 9 z z : 0 N.S XX                      ",
"                        '.K k h x x d h h h h j j j j x x x x x x c g v m.S b.                      ",
"                        '.I l c n m m c c v v n n v v n n n n n n n x N M.A .X                      ",
"                        _.A l V C T [ N N B B B B { { B B B B B B B n } ~ D XX                      ",
"                        !.w b =.;.} } =.=.{ { { { } } { { } { { { } | >.! r XX                      ",
"                        !.w L -.,.:.>.-.-.:.:.:.:.:.:.:.:.:.:.:.:.:.,.q.! r .X                      ",
"                        !.Z T 4.5.<.q.2.2.<.<.3.3.3.3.<.<.<.<.<.3.<.1.y.! r b.                      ",
"                        Q.q T i.r.r.r.e.e.w.w.w.w.w.w.w.w.w.w.w.w.8.w.i.>.p Q.                      ",
"                        k.6 } h.h.f.f.g.f.f.f.f.f.f.f.f.f.f.f.f.f.i.h.f.;.3 z.                      ",
"                        z.X C s.t.t.t.s.s.t.t.t.t.t.t.t.t.t.t.t.t.y.y.t.N : v.                      ",
"                        z.X C s.t.t.t.t.t.t.t.t.t.t.t.t.t.t.t.t.t.y.y.t.N : v.                      ",
"                                                                                                    ",
"                                                                                                    ",
"                                                                                                    ",
"                                                                                                    ",
"                                                                                                    "
};
