/* XPM */
static char *_e1a769f253249d9f4e3c334c235b7c0H9fsD4VBJk5LWYDK[] = {
/* columns rows colors chars-per-pixel */
"50 50 208 2 ",
"   c None",
".  c #010001",
"X  c #070C0A",
"o  c #0A0C0B",
"O  c #060605",
"+  c #150102",
"@  c #1C0207",
"#  c #0E120C",
"$  c #0D0F10",
"%  c #0D1412",
"&  c #1D1B1B",
"*  c #141816",
"=  c #240101",
"-  c #2B0101",
";  c #2B0B0B",
":  c #260506",
">  c #340102",
",  c #3A0202",
"<  c #360408",
"1  c #3C0D0B",
"2  c #370D0B",
"3  c #3E100F",
"4  c #360B13",
"5  c #3B1716",
"6  c #2C150C",
"7  c #07102F",
"8  c #00003D",
"9  c #070F33",
"0  c #031238",
"q  c #1B2B28",
"w  c #1A2825",
"e  c #1F3A30",
"r  c #08253C",
"t  c #2A2322",
"y  c #3C2A27",
"u  c #2C2E32",
"i  c #253A37",
"p  c #440202",
"a  c #4B0203",
"s  c #450A09",
"d  c #4E0E0B",
"f  c #460509",
"g  c #550204",
"h  c #5B0403",
"j  c #580C0B",
"k  c #5A0709",
"l  c #4F130A",
"z  c #5F110B",
"x  c #410D12",
"c  c #431314",
"v  c #461918",
"b  c #680605",
"n  c #67180B",
"m  c #73110C",
"M  c #69240F",
"N  c #5D1921",
"B  c #48352A",
"V  c #463636",
"C  c #53413D",
"Z  c #00024C",
"A  c #051A47",
"S  c #00055C",
"D  c #001854",
"F  c #04285E",
"G  c #123655",
"H  c #011B69",
"J  c #012E6C",
"K  c #032565",
"L  c #0A3869",
"P  c #002475",
"I  c #002B71",
"U  c #002E79",
"Y  c #01347A",
"T  c #003A7D",
"R  c #053874",
"E  c #133F77",
"W  c #23434E",
"Q  c #325D4E",
"!  c #23405C",
"~  c #395B58",
"^  c #334A4E",
"/  c #05457F",
"(  c #184976",
")  c #115471",
"_  c #2D5F67",
"`  c #365A6B",
"'  c #316C60",
"]  c #3B7664",
"[  c #4C4847",
"{  c #69534D",
"}  c #5B625B",
"|  c #63625F",
" . c #605F61",
".. c #447561",
"X. c #64666A",
"o. c #6E6D71",
"O. c #7B7A76",
"+. c #8D0D05",
"@. c #8E2502",
"#. c #A81525",
"$. c #DC060D",
"%. c #D31022",
"&. c #E91E33",
"*. c #E8373E",
"=. c #813F43",
"-. c #AE3143",
";. c #8E464D",
":. c #D9475B",
">. c #F2676C",
",. c #49805E",
"<. c #033B82",
"1. c #003C89",
"2. c #013582",
"3. c #003C93",
"4. c #084A84",
"5. c #094485",
"6. c #0B538B",
"7. c #024B9B",
"8. c #074A94",
"9. c #164F91",
"0. c #00519C",
"q. c #085896",
"w. c #136F9E",
"e. c #16669E",
"r. c #0955A5",
"t. c #0A56AA",
"y. c #065AA4",
"u. c #0053B0",
"i. c #165DA1",
"p. c #0C62A5",
"a. c #0564A8",
"s. c #0364B4",
"d. c #0E6ABF",
"f. c #0866B8",
"g. c #1465B3",
"h. c #50668D",
"j. c #797C82",
"k. c #427BB0",
"l. c #0B6BC8",
"z. c #0C76C0",
"x. c #0D859C",
"c. c #7E8589",
"v. c #77999C",
"b. c #6F88A1",
"n. c #838787",
"m. c #8C918E",
"M. c #90908C",
"N. c #8D9895",
"B. c #999A99",
"V. c #A29F9C",
"C. c #92A793",
"Z. c #8696A8",
"A. c #9AA5A6",
"S. c #9AB3A9",
"D. c #9CADBA",
"F. c #9BB6B5",
"G. c #96B4BB",
"H. c #8FABB7",
"J. c #A2AAAA",
"K. c #A6A6A5",
"L. c #B1ADAE",
"P. c #A7B6B7",
"I. c #B4B5B5",
"U. c #B8BCBA",
"Y. c #F7958D",
"T. c #E6ACA1",
"R. c #DEC4B4",
"E. c #D6C4B4",
"W. c #CAD0BD",
"Q. c #E5C7B6",
"!. c #E7C5B6",
"~. c #F6CEB8",
"^. c #88ADC0",
"/. c #96ADCA",
"(. c #B7C3C4",
"). c #B9CED0",
"_. c #B5D1CF",
"`. c #C9C9C4",
"'. c #C9D4CE",
"]. c #C9D7D3",
"[. c #D6DAD6",
"{. c #E5D9C4",
"}. c #F9D8D7",
"|. c #DAE3D2",
" X c #E8E8D8",
".X c #FFFEDE",
"XX c #E9E7CF",
"oX c #D4DDE1",
"OX c #C7E5E3",
"+X c #D5EDE8",
"@X c #DAE7E8",
"#X c #DAF7F3",
"$X c #E0E5E6",
"%X c #E5EDEC",
"&X c #E8EDE7",
"*X c #E7F6E8",
"=X c #F2F2EE",
"-X c #FCFFEE",
";X c #F8F9E6",
":X c #ECF3F3",
">X c #EFF6FC",
",X c #F3F3F1",
"<X c #FFFDF5",
"1X c white",
"2X c #FFFFFE",
"3X c #FEFEFC",
"4X c #FDFEFC",
"5X c #F4FBF6",
/* pixels */
"                                          X o o o o o o X q                                         ",
"                                        i . . . . . . . . w                                         ",
"                                    % % % . . . . . . . . o % %                                     ",
"                                    . . . . . . . . . . . . . .                                     ",
"                                  . . . . . . . . . . . . . . . o                                   ",
"                                * . . . . . . . . . . . . . . . . e                                 ",
"                                  . . . . . . . . . . . . . . . . q                                 ",
"                                  . . . . . . . . . . . . . . . . i                                 ",
"                                * . . . . . . . . . . . . . . . .                                   ",
"                                % . . . . . . . . . . . . . . . O                                   ",
"                                  O . . . . . . . . . . . . . , j                                   ",
"                                  O . . . . . . . . . . . . . p b                                   ",
"                                  - + . . . . . . . . . . . . = 1                                   ",
"                                  g 2 . . . . . . . . . . . . *                                     ",
"                                    t @ O . . . . . . . . : s t                                     ",
"                                        O O . . . . . . . l +.                                      ",
"                                          ; 4 @ @ @ : 4 p a                                         ",
"                                          , - = - > > > C }                                         ",
"                                      ).OXJ.m.J.`.`.K.B.(._.P.                                      ",
"                                    oX1X=X1X1X:Xn.c.:X1X4X5X1X@X                                    ",
"                                  5X1X4X<X1X1X5XX.o.4X1X1X1X1X,X].                                  ",
"                                $X1X1X4X1X1XL.K.5X,XB.O.U.1X1X1X1X].                                ",
"                              _.,X1X'.=X1X| . . `.M.. $ . n.4X<X1X].                                ",
"                              S.4X1X#X%X| u X.. U.`.N.$Xo . OX4X1X+X                                ",
"                              [ A.B.J.].# X.N.. L.1XI.& . & I.K.V.F.                                ",
"                              z p . . m.[ . . . B.U.. % c.%X{ . . s N                               ",
"                              p b = . ~ F.L. .. I.n.. N.%X%XV . + , c                               ",
"                            Q , a .     @X1XK.. `.O.. . . q   & + , v                               ",
"                          l g b b .     (.[.U.J.=X[.K.K.L.j.    + b j c                             ",
"                          k h f s       P.[.5X1X4X1X1X1X1X:X    = , g g v                           ",
"                          d d > <       '.=X<X<X<X1X<X4X1X&X    ; = p j v                           ",
"                          2 > - ;       Z.b.Z.D.G.A.G.D.A.D.    6 = - f c                           ",
"                          3 p p , B     D H H <.T 8 T U Z H     v - < f 3                           ",
"                          4 z @.m m M ^ I P p.a.I Y 6.q.Y 2.~ n k a g a x                           ",
"                          2 a n z h h _ 0.r.p.8.I Y 4.6.Y 0.` > > f a a c                           ",
"                          1 > > a a b ` u.f./ K Y R R J J 0.` = = k > < 5                           ",
"                            3 , a d ^ ) f.t.K G ' ] W 8 F 1.L 5 p p 1 y                             ",
"                              y 1 B x.s.d.a.J G ..,.! S F 5.q.    , B                               ",
"                                    w.l.g.p.          L r 5.d.w.                                    ",
"                                    r.l.t.q.            A J y.p.                                    ",
"                                  ( 7.z.r./             A D q.s.(                                   ",
"                                  Y <.f.r.L             7 A q.a.5.                                  ",
"                                  T <.g.7.R             9 D 6.y.4.                                  ",
"                                  <.Y 7.3.R             7 D P 1.<.                                  ",
"                                  4.9.e.8.2.            0 A E i.k.                                  ",
"                                  v.>X4X/.I             Z h.*X5X:X                                  ",
"                              A.(.|.1X1X@X^.            b.H.1X1X,X].(.                              ",
"                          S.'. X<X4X1X1X1X1XP.          ].+X#X4X4X4X;X|.W.                          ",
"                          C. X-X.X<X1X-XY.*.|         ;.-.:.>.}.1X.X;X;X{.                          ",
"                          N.R.~.Q.Q.R.{.>.$.{         =.#.%.&.T.XX!.!.Q.E.                          "
};
