/* XPM */
static char *_962a48b9fce42c5bea56bc9e0983ec2Ao90dUnKdYHFeNUz[] = {
/* columns rows colors chars-per-pixel */
"50 50 203 2 ",
"   c None",
".  c #010101",
"X  c #0A0205",
"o  c #090D0C",
"O  c #060C0B",
"+  c #160001",
"@  c #1C0204",
"#  c #09110E",
"$  c #0C0F10",
"%  c #0D1412",
"&  c #0A1A16",
"*  c #161919",
"=  c #2B0000",
"-  c #280708",
";  c #310001",
":  c #3C0103",
">  c #3C0B0C",
",  c #350909",
"<  c #2A0E10",
"1  c #341016",
"2  c #14211D",
"3  c #20201F",
"4  c #00002E",
"5  c #141D20",
"6  c #010E3F",
"7  c #03143A",
"8  c #1A2625",
"9  c #1D312C",
"0  c #212F2D",
"q  c #21322E",
"w  c #223633",
"e  c #3C382D",
"r  c #440000",
"t  c #4D0101",
"y  c #40010B",
"u  c #530100",
"i  c #5C0100",
"p  c #560A04",
"a  c #5C160C",
"s  c #59190D",
"d  c #54140F",
"f  c #4C1816",
"g  c #650301",
"h  c #650A03",
"j  c #690B02",
"k  c #6D0000",
"l  c #780700",
"z  c #7A1203",
"x  c #701905",
"c  c #781907",
"v  c #741118",
"b  c #582218",
"n  c #4B241F",
"m  c #7D2108",
"M  c #682315",
"N  c #471C20",
"B  c #571A27",
"V  c #4D2920",
"C  c #5D222D",
"Z  c #6C3D2D",
"A  c #29423C",
"S  c #4E4334",
"D  c #7F412C",
"F  c #644038",
"G  c #000B49",
"H  c #011B4D",
"J  c #000155",
"K  c #011E5A",
"L  c #011551",
"P  c #002145",
"I  c #05254B",
"U  c #052459",
"Y  c #0E3956",
"T  c #011B65",
"R  c #011F75",
"E  c #022261",
"W  c #00216E",
"Q  c #06366B",
"!  c #163A65",
"~  c #002B7B",
"^  c #022A72",
"/  c #023275",
"(  c #023B7C",
")  c #063279",
"_  c #603A43",
"`  c #10434E",
"'  c #1B5559",
"]  c #304E44",
"[  c #2D5649",
"{  c #26585B",
"}  c #3B594C",
"|  c #376557",
" . c #1F496F",
".. c #1F5A6E",
"X. c #044674",
"o. c #154F71",
"O. c #26596F",
"+. c #08647A",
"@. c #2C7169",
"#. c #2C6178",
"$. c #404E41",
"%. c #785352",
"&. c #775D5E",
"*. c #6A504F",
"=. c #7C655F",
"-. c #665661",
";. c #4B7C62",
":. c #8C0A00",
">. c #881A06",
",. c #931100",
"<. c #8C1E13",
"1. c #A8051A",
"2. c #882509",
"3. c #8A2406",
"4. c #932505",
"5. c #A12801",
"6. c #BD2D3A",
"7. c #C7000F",
"8. c #FF1836",
"9. c #C62F3F",
"0. c #DC2834",
"q. c #EA253F",
"w. c #9C4715",
"e. c #A75D1E",
"r. c #E13343",
"t. c #855A5C",
"y. c #845E62",
"u. c #8A6365",
"i. c #986F74",
"p. c #B3687A",
"a. c #C4706F",
"s. c #E97375",
"d. c #FECB62",
"f. c #023886",
"g. c #054385",
"h. c #034489",
"j. c #094A86",
"k. c #034894",
"l. c #06559E",
"z. c #29528A",
"x. c #136A90",
"c. c #2E6398",
"v. c #396897",
"b. c #075BA9",
"n. c #0968AA",
"m. c #0471AC",
"M. c #0468B8",
"N. c #0473B5",
"B. c #3A71A6",
"V. c #046FC2",
"C. c #0471CC",
"Z. c #789295",
"A. c #66A69B",
"S. c #7FA0B1",
"D. c #8A8687",
"F. c #9C8F93",
"G. c #A7908F",
"H. c #8899B0",
"J. c #93A1A0",
"K. c #97B6B9",
"L. c #B5AEAE",
"P. c #B2BBBA",
"I. c #AFB0AF",
"U. c #CAAA94",
"Y. c #C8A58E",
"T. c #C4ACAA",
"R. c #CDB9AA",
"E. c #CEB7A7",
"W. c #D0BAAC",
"Q. c #88C3B8",
"!. c #A9D0B6",
"~. c #D3C5A8",
"^. c #FFC5B1",
"/. c #F8CDB5",
"(. c #92B0C2",
"). c #89B7D4",
"_. c #B8C9C4",
"`. c #BADADE",
"'. c #CECDD6",
"]. c #C8D6D6",
"[. c #DCDDDD",
"{. c #D1CFCB",
"}. c #F0DCDF",
"|. c #E1D8D8",
" X c #DFE3DE",
".X c #FBE4DB",
"XX c #FFF2DC",
"oX c #F1E6CD",
"OX c #C8EAE4",
"+X c #DFE9E3",
"@X c #D7EFF2",
"#X c #E4EBE8",
"$X c #E7EAE6",
"%X c #E7F0EF",
"&X c #ECF1EF",
"*X c #FFFDE6",
"=X c #F8F7EA",
"-X c #EDF6F1",
";X c #F2F6F4",
":X c #F5FAF5",
">X c #FCFCF4",
",X c #FFFFFD",
"<X c #F6FFF8",
/* pixels */
"                                                w o % % % % % % 8                                   ",
"                                          | ] } 9 . . . . . . . %                                   ",
"                                          2 % % o . . . . . . . . . % 9                             ",
"                                        O . . . . . . . . . . . . . & 9                             ",
"                                    w 9 O . . . . . . . . . . . . . # 2 A                           ",
"                                    5 . . . . . . . . . . . . . . . . . q                           ",
"                                    8 . . . . . . . . . . . . . . . . . 0                           ",
"                                    9 O . v > . . . . . . . . . . . . . 9                           ",
"                                      2 . , @ X . . . . . . . . . . . . q                           ",
"                                      . . . . - X . . . . . . . . . . . q                           ",
"                                      b : . L.*.. - s a , . . . . . . . 9                           ",
"                                      Z u . '.%.. d s a M . . . . . . . 9                           ",
"                                    e M c S ~.D + d , , s . . . . . . $ w                           ",
"                                    b i <.d.e.j >.x , y ; . . . . . %                               ",
"                                    V u z w.x h >.c X . X . . . X o                                 ",
"                                    n g z l c 3.c , . . . . . o *                                   ",
"                                    } e i g j z p X + : = &                                         ",
"                                      } N < 1 < @ . + u g                                           ",
"                                                  D.F.{.T.                                          ",
"                                                  ,X,X,X,X;X                                        ",
"                                                ].;X,X>X,X$X_.                                      ",
"                                                +X,X,X>X:X{.:X                                      ",
"                                                +X$X$X,X=XP.&X                                      ",
"                                                $XOX@X,X,X].-X>X                                    ",
"                                                #XL.G.T.G.D.$X<X                                    ",
"                                                -X%.r i = = |.,X                                    ",
"                                                ;X-.r 5.k N %X,X                                    ",
"                                                :Xt.t 3.g &.,X:X                                    ",
"                                                <Xy.u m = &.,X,X                                    ",
"                                                <Xu.u >.; -.,X,X                                    ",
"                                                ,Xu.u c ; =.,X,X                                    ",
"                                                )._ g 2.u F (.H.                                    ",
"                                            @.+.H t 3.2.>.: 4 J                                     ",
"                                            M.M.B ,.m 2.4.: G Q                                     ",
"                                            m.N.C :.3.3.j > H U #.                                  ",
"                                            m.m.N l >.j t : 7 T O.                                  ",
"                                            V.M.1 i p : ; 3 I W / '                                 ",
"                                          x.n.M.l.k.X.[ [ @.! T ~ ..                                ",
"                                          g.l.N.C.f.L         K ~ ..;.                              ",
"                                          l.b.n.l.T 6         K f.f. .;.                            ",
"                                          j.l.M.f.E P         Y ^ f.( O.{                           ",
"                                          Q h.M.h.U P         { K ( h.R Q                           ",
"                                          ( g.n.j.E P         ` U / g.) X.                          ",
"                                          ( f.k.~ K 7         Y G T ~ ~ /                           ",
"                                          X.c.B.v.! P         Z.U z.c.z.z.                          ",
"                                          !.+X,X,XS.h.      Z.P.I. X,X>X,X                          ",
"                                  ]._. X=X,XXXXX,X`.).      _.'.K.%X,X,X,X                          ",
"                                  =X X:X*X,X.X/.;X'.}.    ;X:X'.H.[.,X:X-X                          ",
"                                  XX*X,X*X*X,X.Xr.q.8.  Q.=XOXp.7.s.oX^.^.                          ",
"                                  R.W.E.R.E.~.Y.6.9.0.  A.J.K.i.1.a.~.U.U.                          "
};
