/* XPM */
static char *f8c8dd8f84bb4d72a8586718a262f0b5hWm3l77z2hBOagmu[] = {
/* columns rows colors chars-per-pixel */
"50 50 210 2 ",
"   c None",
".  c #010101",
"X  c #0B0001",
"o  c #0B0B0A",
"O  c #07090A",
"+  c #110101",
"@  c #1B0202",
"#  c #1E0A08",
"$  c #0C100E",
"%  c #0D0E10",
"&  c #0E1412",
"*  c #001017",
"=  c #131514",
"-  c #121B18",
";  c #250202",
":  c #2B0302",
">  c #340102",
",  c #3B0002",
"<  c #380A0B",
"1  c #3B110E",
"2  c #320D10",
"3  c #381514",
"4  c #2E1710",
"5  c #1A211D",
"6  c #22221F",
"7  c #39201D",
"8  c #030429",
"9  c #030335",
"0  c #04142A",
"q  c #192824",
"w  c #1E3233",
"e  c #252627",
"r  c #2E2F31",
"t  c #353535",
"y  c #3C3D3E",
"u  c #3F2D2B",
"i  c #430203",
"p  c #4C0202",
"a  c #490C08",
"s  c #530202",
"d  c #5C0303",
"f  c #560A0A",
"g  c #4B1507",
"h  c #541107",
"j  c #440F10",
"k  c #5B0F10",
"l  c #4B1615",
"z  c #541514",
"x  c #5A1415",
"c  c #630204",
"v  c #6C0402",
"b  c #670C06",
"n  c #760906",
"m  c #69160A",
"M  c #7C1301",
"N  c #7C1C05",
"B  c #711C07",
"V  c #651A13",
"C  c #7B1811",
"Z  c #57271C",
"A  c #782208",
"S  c #7A2312",
"D  c #4A3C36",
"F  c #702322",
"G  c #662C2C",
"H  c #284039",
"J  c #43453B",
"K  c #04154E",
"L  c #00095B",
"P  c #041954",
"I  c #000C45",
"U  c #042A4D",
"Y  c #022257",
"T  c #183459",
"R  c #12344E",
"E  c #263E5B",
"W  c #00167F",
"Q  c #02296A",
"!  c #06326A",
"~  c #002974",
"^  c #033272",
"/  c #053B7C",
"(  c #033679",
")  c #2B3B75",
"_  c #3C4345",
"`  c #24444A",
"'  c #306B5F",
"]  c #0F417E",
"[  c #164876",
"{  c #334C7B",
"}  c #3B6E64",
"|  c #424344",
" . c #494A4A",
".. c #555857",
"X. c #5B4142",
"o. c #714E4A",
"O. c #506D62",
"+. c #757E7C",
"@. c #727376",
"#. c #860E00",
"$. c #840800",
"%. c #821D05",
"&. c #871807",
"*. c #8D1A0B",
"=. c #86220D",
"-. c #962306",
";. c #882817",
":. c #A82800",
">. c #80362E",
",. c #B52837",
"<. c #C40E1A",
"1. c #DA1F2D",
"2. c #C22E3F",
"3. c #994119",
"4. c #D0622C",
"5. c #834F52",
"6. c #B54650",
"7. c #BB6A5F",
"8. c #9F706B",
"9. c #AF7874",
"0. c #F4555C",
"q. c #C16162",
"w. c #D3736B",
"e. c #49805E",
"r. c #C4827A",
"t. c #002B85",
"y. c #023B8C",
"u. c #003687",
"i. c #002F90",
"p. c #013A92",
"a. c #003BAC",
"s. c #084583",
"d. c #03518F",
"f. c #024998",
"g. c #055A9D",
"h. c #325C8F",
"j. c #3B5489",
"k. c #096298",
"l. c #35698D",
"z. c #0149A7",
"x. c #0457A8",
"c. c #025BB6",
"v. c #125CA0",
"b. c #0767AD",
"n. c #1071AC",
"m. c #0864BA",
"M. c #106EB1",
"N. c #0D71AE",
"B. c #5D7C80",
"V. c #4070A1",
"C. c #005EC2",
"Z. c #096CC9",
"A. c #006CD1",
"S. c #1169C3",
"D. c #58868B",
"F. c #6792B9",
"G. c #8E938F",
"H. c #98A29F",
"J. c #98B7B9",
"K. c #96B1A1",
"L. c #A4A6A5",
"P. c #ACB0AE",
"I. c #A5BAB5",
"U. c #B5B5B5",
"Y. c #B9B8B9",
"T. c #CDA49B",
"R. c #CFAEAF",
"E. c #D8B8B1",
"W. c #F2BEB0",
"Q. c #AFC2BD",
"!. c #C7C3B9",
"~. c #D5CDB7",
"^. c #D5C4AC",
"/. c #EBCDB4",
"(. c #94ADC4",
"). c #BCBFC1",
"_. c #B8C7C8",
"`. c #BAD8DA",
"'. c #ACCED2",
"]. c #B5CDE6",
"[. c #C6C8C9",
"{. c #D7D5C9",
"}. c #C5D6D5",
"|. c #D6DADB",
" X c #C5D2C6",
".X c #EAD8C4",
"XX c #F6D6C5",
"oX c #E9DDD5",
"OX c #DAE3DC",
"+X c #E1E2DF",
"@X c #FFFFD8",
"#X c #CFEDEE",
"$X c #D9E4E4",
"%X c #CFF2F0",
"&X c #DBEFF1",
"*X c #E9E7E7",
"=X c #E4ECE5",
"-X c #EBEEEC",
";X c #E3EBEA",
":X c #FBE8E4",
">X c #EBF3ED",
",X c #E8F4E6",
"<X c #FCFBE7",
"1X c #F6F7E7",
"2X c #ECFAF6",
"3X c #F3F3F2",
"4X c #F5FBF6",
"5X c #FCFBF5",
"6X c #FFFFFE",
"7X c #F8F8F6",
/* pixels */
"                                          O q   & = & = $ q                                         ",
"                                        H . . . . . . . . q                                         ",
"                                    & - - . . . . . . . . o 5 &                                     ",
"                                    . . . . . . . . . . . . . .                                     ",
"                                    . . . . . . . . . . . . . . %                                   ",
"                                  . . . . . . . . . . . . . . . O                                   ",
"                                  . . . . . . . . . . . . . . . . q                                 ",
"                                  . . . . . + z ;.S V V C S l X . w                                 ",
"                                  . . . . O @ < z g =.=.g x 1 X                                     ",
"                                  . . . . @ + . . . V h . . . .                                     ",
"                                  @ < : . X o.+.. 4 M F ... . o                                     ",
"                                  f C m X . E.6X0 g v 5.&X* p z                                     ",
"                                  i @ ; @ @ 9.>Xe a v G {._ s k                                     ",
"                                  i i > j n &.3.=.*.d , ;.4.&.2                                     ",
"                                    7 < : h v #.-.-.N b M :.#.3                                     ",
"                                        . . > n =.%.%.N B m v                                       ",
"                                          @ > i d c d s p p                                         ",
"                                          @ + . X X # D   ..                                        ",
"                                          G.l . . . O Z G.'.                                        ",
"                                      -X>X6X8., p . > v R.6X7XQ.                                    ",
"                                    6X6X6X6X4XT.s , s 9.6X6X6X-X                                    ",
"                                  7X6X6X5X5X6X6XT.7.r.:X6X6X6X6X*X                                  ",
"                                =X6X|.*X6X6X*XP.$X6X-XL.U.6X3X=X6X                                  ",
"                                ;X6X_.[.6X6X .. | 3Xe . . ..|.OX6X'.                                ",
"                                %X6X&X>X6X+.. . ..|...[.t . _.6X6X`.                                ",
"                              >.o._ r I.I.. H.e y 6X$Xr . 5 @.| D o.                                ",
"                              f p . . } D.. t O . H.| . O.3XX.. . p                                 ",
"                              > p :     +.t e . O G.6 _ _.[.  X ; ,                                 ",
"                            x f d @     &X6X6X=  .3X= . . .     ; d c z                             ",
"                          1 d c a       |.=X4XY.).6XU.L.L.U.    : n $.k                             ",
"                          3 s s <       ).OX3X6X6X6X6X6X6X6X    : p c k                             ",
"                          1 p > :       J.J.OX6X,X1X1X<X6X;X    # ; d m                             ",
"                          1 i , :       ) T h.V.{ j.{ h.j.)     1 , c j                             ",
"                          4 p &.A S A   W L f.x.P Q u.f.i.Q   V n &.#.j                             ",
"                          4 s &.N d d   z.x.M.b./ s.g.n.b.n.D : s *.#.z                             ",
"                          3 > , v d d   u.m.g.! ( ^ ( Q ~ ] J ; p n p 2                             ",
"                              > p a     C.c.( R ' } ` 8 Y f.    i s 1                               ",
"                              u 1 g   A.A.m.^ R O.O.` L ! g.      ,                                 ",
"                                      Z.m.m.            U s.v.                                      ",
"                                    z.S.x.x.            P y.m.x.                                    ",
"                                  [ f.Z.x.s.            K ^ b.c.[                                   ",
"                                  t.( N.x.!             9 U k.x.]                                   ",
"                                  u.y.x.z./             8 Y d.z.s.                                  ",
"                                  u.t.y.p.s.            0 I ~ a.p.                                  ",
"                                  l.(.`.F.~             9 E J.].(.                                  ",
"                                  K.6X6X].s.            K @.@X6X-X                                  ",
"                                  $X6X6X6X#X            `.}.{.7X3X|.}.                              ",
"                             XI.>X6X7XXX:X*X            {.!.Q.OX5X6X=X{.{.                          ",
"                            ~.~./.<X:XW.0.1.            2.<.q.2X4XoXXXXX~.                          ",
"                            ^.XX/./..X2Xw.<.            ,.<.6.'.I.[.XX.X!.                          "
};
