/* XPM */
static char *_67944969f334e3d840579d9bf70f8178JUS00IG8EnUPyV8[] = {
/* columns rows colors chars-per-pixel */
"50 50 228 2 ",
"   c #4C0F11",
".  c #461617",
"X  c #4C1415",
"o  c #4A1817",
"O  c #471719",
"+  c #4A1719",
"@  c #461819",
"#  c #4C181A",
"$  c #541515",
"%  c #5A1616",
"&  c #561817",
"*  c #5C1917",
"=  c #541619",
"-  c #5B1618",
";  c #551A1B",
":  c #5C1B1B",
">  c #631917",
",  c #631C1B",
"<  c #6B1D1A",
"1  c #651715",
"2  c #721E1B",
"3  c #59211E",
"4  c #64211E",
"5  c #6B211D",
"6  c #73221E",
"7  c #7A231E",
"8  c #5B1F21",
"9  c #651F21",
"0  c #5D2323",
"q  c #552522",
"w  c #622422",
"e  c #6B2422",
"r  c #642A26",
"t  c #6A2926",
"y  c #662B2B",
"u  c #6B2D2B",
"i  c #742421",
"p  c #7C2621",
"a  c #732925",
"s  c #7C2924",
"d  c #742D2A",
"f  c #7C2E29",
"g  c #6D312D",
"h  c #74312E",
"j  c #7C322D",
"k  c #6E3230",
"l  c #743531",
"z  c #7B3632",
"x  c #7B3B36",
"c  c #7C3D3A",
"v  c #743A34",
"b  c #7D403B",
"n  c #82251E",
"m  c #8B261E",
"M  c #88291F",
"N  c #90281F",
"B  c #842521",
"V  c #842A23",
"C  c #8C2B23",
"Z  c #872B27",
"A  c #942D24",
"S  c #9A2E23",
"D  c #942F28",
"F  c #83322C",
"G  c #8B342D",
"H  c #8B3228",
"J  c #9C3126",
"K  c #93332B",
"L  c #9C342A",
"P  c #98362C",
"I  c #823631",
"U  c #8A3631",
"Y  c #833B35",
"T  c #8B3A34",
"R  c #843E3A",
"E  c #8B3F3A",
"W  c #943C33",
"Q  c #9B3C33",
"!  c #943B34",
"~  c #A43226",
"^  c #AB3426",
"/  c #A43529",
"(  c #AB362A",
")  c #A4392E",
"_  c #AC392C",
"`  c #AF3827",
"'  c #B23626",
"]  c #B33B2C",
"[  c #BB3D2D",
"{  c #B73828",
"}  c #A43D32",
"|  c #AC3E32",
" . c #B53E31",
".. c #BA3E30",
"X. c #C23E2C",
"o. c #C43F30",
"O. c #83423D",
"+. c #8B423B",
"@. c #8B483F",
"#. c #94433C",
"$. c #9D433B",
"%. c #9B4339",
"&. c #BD402E",
"*. c #B3402F",
"=. c #A34136",
"-. c #AC4235",
";. c #A3453B",
":. c #AA463A",
">. c #AD4A3E",
",. c #A44A3E",
"<. c #B44335",
"1. c #BC4333",
"2. c #B54639",
"3. c #B64A3D",
"4. c #BB4C3D",
"5. c #BB4739",
"6. c #BE513E",
"7. c #C4422E",
"8. c #CA432E",
"9. c #C34332",
"0. c #CB4533",
"q. c #C44936",
"w. c #CC4A36",
"e. c #C34C3B",
"r. c #CA4D3B",
"t. c #C14738",
"y. c #D24934",
"u. c #D74D39",
"i. c #C5513D",
"p. c #CA513D",
"a. c #D3523D",
"s. c #DA523C",
"d. c #854541",
"f. c #8C4641",
"g. c #8C4B44",
"h. c #8A4B45",
"j. c #924640",
"k. c #934C44",
"l. c #9C4B42",
"z. c #964F48",
"x. c #95524A",
"c. c #9B554C",
"v. c #9D574C",
"b. c #9D5A52",
"n. c #9B5651",
"m. c #8F5048",
"M. c #A44C42",
"N. c #AB4D42",
"B. c #A74740",
"V. c #B34D41",
"C. c #B94F42",
"Z. c #AC5146",
"A. c #A3564C",
"S. c #AA544A",
"D. c #A9574B",
"F. c #B45144",
"G. c #BC5243",
"H. c #B2544A",
"J. c #B45A4D",
"K. c #BC5A4B",
"L. c #BC5549",
"P. c #A45B52",
"I. c #AA5E54",
"U. c #B35E52",
"Y. c #BD5E50",
"T. c #AB6256",
"R. c #AD645A",
"E. c #AE685B",
"W. c #B36256",
"Q. c #BC6255",
"!. c #B3655A",
"~. c #B36A5E",
"^. c #BC6C5D",
"/. c #BB6759",
"(. c #B5604E",
"). c #BB6D61",
"_. c #B56D61",
"`. c #BD7264",
"'. c #BE766A",
"]. c #C64F40",
"[. c #C45444",
"{. c #CB5543",
"}. c #CB5946",
"|. c #C45C4C",
" X c #CB5C4B",
".X c #C05847",
"XX c #D45945",
"oX c #D35D4A",
"OX c #D65744",
"+X c #C85E50",
"@X c #C9614E",
"#X c #D5614E",
"$X c #C46354",
"%X c #CB6554",
"&X c #C46C5C",
"*X c #CD6B5A",
"=X c #CB6858",
"-X c #D26551",
";X c #D96652",
":X c #D26B5B",
">X c #DB6D5A",
",X c #D56956",
"<X c #C4715F",
"1X c #CD715F",
"2X c #D4715E",
"3X c #DC715D",
"4X c #E36852",
"5X c #C16F61",
"6X c #C57363",
"7X c #CC7364",
"8X c #CB796A",
"9X c #C97669",
"0X c #D47463",
"qX c #D37C6C",
"wX c #DA7C6B",
"eX c #D97764",
"rX c #D17F70",
"tX c #CC7F72",
"yX c #E67F6B",
"uX c #D88777",
"iX c #D1816F",
"pX c #E4836D",
"aX c #E9917C",
"sX c #E69481",
"dX c #EA9B89",
"fX c #F39681",
"gX c #F7A38E",
"hX c #F7A592",
/* pixels */
"e G N.J.W.~.^.!.I.v.@.z z z.!.5X/.J.>.} :.J.W.!.W.W.W.W.W.W.^.^.T.c.O.d s U Z./.!.!.!.!.!.).!.z.x h ",
"i P 4.|.|.$X$XK.H.M.#.Y O.A.&X2X$XL.4.2.3.L.J.J.H.J.K.|.K.|.%X*X/.P.k.R T $.K.%X$XY.Y.Y.$X%XY.l.z d ",
"s ) r.OX}.}.}.[.4.:.%.R f.U.2X>XoXp.r.r.r.i.G.4.3.4.i.i.r.{.oX;X%XU.c.k.l.Z.+X;XoX{.[.[.{. X[.=.F s ",
"s _ w.s.a.r.r.t.2.| Q Y +.Z.;X4Xa.w.a.OXa.w.q.1.5.2.<.1.9.0.s.OX XH.l.j.#.N.[.OXa.w.w.r.e.t.<.P s i ",
"s _ w.u.w.q.5.2.-.| P F F =.r.s.y.w.OX;XXXq.[ 7.5.<.} ) ] [ w.u.r.:.W F F W 2.w.0.7.7.t.1.| L V 6 5 ",
"s / 7.8.X.] <.:.=.} K p i A [ 7.[ 1.}.-X}.7.[ q.5.-.P K J ' [ X.[ / C i 5 p L [ X.X.[ [ _ L C 7 < , ",
"i L [ [ ` _ :.N.>.} C 6 < m ^ { ` _ 3..X[.e.q.e.4.:.! K J ~ ' ' ^ S B < > 2 C _ 1.r.t. ./ ~ A 7 5 , ",
"6 C / ( S P B.S.N.Q V < > 7 S ~ S A ) -.4.[.[.G.N.;.%.P L S S ~ A C p , * < n ) G. X[.| / / J Z 5 5 ",
", 7 V B p s T #.E F i * % < 7 n 7 7 p H Q N.Z.$.T U U F V n n n 7 7 < - & % < F M.J.N.K M C C p 4 , ",
"& * > > - > 9 e e , - X   $ - > - % > 5 j E E j e , 9 , > > > > * * & X     $ 5 x @.I 5 1 1 > * & & ",
"= ; : : : : ; & & & & & ; : : : ; : : w u l u w & & : : : : : : : ; ; ; ; ; ; w l x g 3 & ; ; ; = = ",
"w k c O.c c x l d a d z R O.c c c c c R z d t w 0 u x O.b c c x h d d z O.O.O.@.h.g.d.b x c x u w 0 ",
"l z.!.).~.R.R.I.M.%.;.D.~.~.~.~.R.R.!.W.l.F i d c x.T._.~.R.T.A.M.$.;.D.!._.~.~.~.!.R.E.~._.R.m.v k ",
"Y D.7XwX7X7X7X*X|.4.G.$X7X7X7X7X7X7X0X2XJ.W V j @.A.&X0X7X<X&XQ.K.G.G.$X7XqXqXqX7X7X7XiXuXsXuX~.d.c ",
"j ;.|.-X X X X X{.e.e.[.|.+X|. X+X%X,X,X|.M.W U T ,.K.@X@X|.L.G.4.t.r.[.|.*X0XqX*X%X2XiXsXgXdX'.g.O.",
"s P <.t.1.1.t.q.q.9.1.<.<.<.1.1.t.r.OXXX.XS.j.U H L *.q.1.1.<. ...9.q.9.1.G.$X$X|.{.-XeXaXgXdX'.g.O.",
"p L <.1.1.1.9.0.0.0.9.] ( ( ] [ X.7.w.r.3.;.E F V J { 7.X.[ [ [ [ 9.0.X.[ <.>.V.5.t.{.;XyXfXsX`.g.O.",
"p Q 3.4.2.<.9.0.0.0.9.] / ( ] [ X.X.9.1.) H a i p J ] 7.7.[ [ [ 9.q.0.8.[ _ L P ( ..q.p.;XyXiX!.O.x ",
"s W V.F.:.-. .[ X.o. .( / / ( ] 9.9...( A 6 > > 6 C _ &.] ] _ ] ] &.&.7.{ ~ m m A ^ ] [ e. XQ.l.z h ",
"i W F.F.:.} ) ( ` ] _ ( / J /  .r.{.5./ B < % % , p L _ / / J L / _ ] ] _ J C m N S ~ / _ -.;.U a t ",
"5 U M.N.%.K K A S L L L L A A } L.|.V.K i , % $ * 6 V D C C C C C D L L L K C V V C C A A C B i , , ",
": a F F f i 6 6 7 7 p p p 7 6 F l.A.#.s , % X X $ * < 6 6 5 < < 5 7 7 p p i 7 6 < < < 2 < 1 1 - & & ",
"= ; : : ; & & & % - * * * % $ 4 l c h 4 & X X X X $ & % % & & & & % * * * * % & & & & & & $ $ $ X X ",
"= & ; : 3 0 0 0 0 0 ; ; ; ; 3 r k v u 4 , w w w w w w w w 0 w w 0 : ; & & ; : 0 0 0 0 0 0 w w 0 ; ; ",
", i F O.@.h.m.g.d.c k r r l d.x.x.k.U F F +.g.g.g.g.g.g.g.g.g.g.d.c g w , a Y g.g.h.h.g.g.x.k.c u y ",
"6 W F.Q.^.`.9X6X~.P.g.x x c.`.8X<X(.>.-.>.U.^.^.^.^.^.^.^.^.6X6X~.b.f.j s W D.&X`.).).).5X9X5XA.x l ",
"p } }.>X2X0X0X2X$XJ.l.O.@.T.wXpX2X|.[.r.{.%X*X*X*X*X*X*X*X*XeXwX7X!.x.+.T ,.$XeXeX1X1X:X0XeX*XD.Y z ",
"s ) r.OXoX}.[.G.3.:.%.R @.I.2X>XoXi.p.{.{.[.[.4.4.4.4.6.6.[.oX;X%XJ.x.k.#.Z.@X;X#X}.[.[.[.}.G.%.f a ",
"p ) q.y.w.1.[ ] ( / K I +.Z. XOXw.9.r.XX{.t.[ ] ] _ _ _ ] [ w.a.[.N.$.@.j.M.[.a.w.q.9.1.&.] / C 6 5 ",
"s _ 0.y.8.&.1.<.| ) K F F =.r.u.0.9.{.#X{.7.[ [ 1.-.) / ( [ 8.y.q.-.W I I ! <.q.0.X.X.X.] ` J V 5 5 ",
"s _ w.y.7.1.4.F.V.-.K s p D &.0.X.9.{.#X{.7.X.q.[.V.$.Q _ { X.8.&._ H i e p L [ 9.X.9.&.] _ J V 5 4 ",
"i L ..[ ] _ >.H.N.=.H 6 < n ^ { ( _ 3..X[.t.t.e.G.N.W K L ^ ` ' ^ S n 1 - < C ) 5.e.t.] / / A p 5 , ",
"e C / / S P ;.M.;.W p , > 6 A S A A Q :.C.[.[.V.:.Q ! G D A S S A C 7 > % > 7 Q G. XG.) S J A p 5 , ",
", i V V p s U W T f 5 : ; , p p 7 7 V G ;.H.H.$.G F F F s p B B p 7 5 * & * < G Z.Q.Z.K n C C p , , ",
"& * > > > , e t e , ; X X & * > - - > 5 j E E j e , e , , > > > > ; & $ X $ % e R k.Y 5 > 1 < > ; ; ",
"$ $ & & $ $ $ & & $ X X X X = = X = & ; w t t 9 & & & & & & & & & $ X X X X $ ; y u w & X $ $ $ X X ",
": w u u u y y w 4 , e u u u u y y y u u t w : : ; 0 u u u u u y w w e t u g u g h l g u y u y 0 8 ; ",
"u O.v.I.v.c.z.k.#.G ! l.P.P.v.c.c.c.v.c.+.f e t l O.x.P.b.c.x.k.#.T W l.A.I.I.I.P.b.b.b.b.P.n.d.k u ",
"x A.7XwX7X6X<X&X.X4.G.$X7X9X7X6X6X6X7X1XJ.W F z @.P.5XqX9X6X^.Q.J.F.G.$X7XqXrXrX8X9X8XtXuXuXiXR.d.c ",
"I N.%X>X:X=X,X-X Xr.{. X:X:X=X*X:X:X3X3X@X,.T U #.Z.%X>X:X*X%X|..Xi.{. X,X0XwXwX0X0XwXuXdXhXdX'.m.d.",
"f Q 5.r.5.e.i.p.r.q.1.5.3.3.4.4.r.{.OXoX.XZ.#.U K } 5.].].e.4.5.5.1.t.t.e..X$X&X|.}.,XwXaXgXdX9Xm.d.",
"p L ] [ ] ] 1.9.q.q...] ( ( ] [ X.7.w.r.3.,.+.F C S ` [ [ [ ] { [ 7.7.X.[ <.>.F.3.t.{.,XpXfXsX`.g.O.",
"p Q 5.t.2.<.1.9.0.0.1.] ^ ^ ] [ X.X.7.1.} G f i p S ] o.X.[ [ [ [ 7.8.8.X.] } } _ [ q.{.>XyXwX!.+.x ",
"s %.L..XV.2.1.9.9.q.1._ / _ ] [ 7.7.[ _ A 7 , > 6 A ] 9...] ] ] [ 7.7.7.[ ( S A S ( [ 1.[.%X$XM.z d ",
"i W F.F.:.} } _ ] ] _ / J J ~ *.e.e.2./ B < - % < V L _ ( / / / / _ { ] _ J m m m S ~ ^ _ <.;.U a t ",
"5 G ;.:.Q K K A S J J J A A A } .X|.3.P p < - % > i C D A A C C A A J J J A C B B C A A A D C p < , ",
": a F F f a i 7 7 p p p p 7 7 G Z.J.$.f < > & & ; , 6 i i 7 6 6 i i p p p p i i i i i 7 7 2 < 1 - - ",
"; : w w w : : : : : , , , > > t x O.l w ; ; $ X # ; ; : : : : : : : : , , , , , : : : : * - % & # # ",
". X X X # X # o o + + + + X + ; q 0 q ; # X X o o o o # o o # # # # o o o # # # # # # # # # # + o @ ",
". . . . X X X . . . . O O . . o q q 3 # o X o o o o + + O O + + + + O O O + + + + + + + + + + + @ @ "
};
